# xmcd CD database file
#
# Track frame offsets:
#	150
#	24082
#	48144
#	67833
#	92111
#	106857
#	132854
#	153550
#	175725
#	196635
#	218305
#	237605
#	256932
#	265088
#	281438
#
# Disc length: 4004 seconds
#
# Revision: 0
# Processed by: cddbd v1.5.2PL0 Copyright (c) Steve Scherf et al.
# Submitted via: CDex 1.70beta2
#
DISCID=b80fa20f
DTITLE=Kristine W - Straight Up with a Twist - Disk 1
DYEAR=2010
DGENRE=Jazz
TTITLE0=Feel What You Want
TTITLE1=Stairway to Heaven
TTITLE2=On the Radio
TTITLE3=Save My Soul
TTITLE4=What I Like About You
TTITLE5=Some Lovin'
TTITLE6=Window to Your World
TTITLE7=Stronger
TTITLE8=Wonder of it All
TTITLE9=Dream On
TTITLE10=Take it to the Limit
TTITLE11=River Divides
TTITLE12=Who Knows
TTITLE13=Meet Again
TTITLE14=Feel What You Want (Instrumental)
EXTD=YEAR: 2010
EXTT0=
EXTT1=
EXTT2=
EXTT3=
EXTT4=
EXTT5=
EXTT6=
EXTT7=
EXTT8=
EXTT9=
EXTT10=
EXTT11=
EXTT12=
EXTT13=
EXTT14=
PLAYORDER=
